<svg width="40" height="40" viewBox="0 0 40 40" fill="none" xmlns="http://www.w3.org/2000/svg">
<path opacity="0.2" d="M39.5 20C39.5 23.8567 38.3563 27.6269 36.2137 30.8336C34.071 34.0404 31.0255 36.5397 27.4623 38.0156C23.8992 39.4916 19.9784 39.8777 16.1957 39.1253C12.4131 38.3729 8.93855 36.5157 6.21143 33.7886C3.4843 31.0615 1.62711 27.5869 0.874696 23.8043C0.122284 20.0216 0.508449 16.1008 1.98436 12.5377C3.46027 8.97451 5.95963 5.92903 9.16639 3.78634C12.3731 1.64365 16.1433 0.5 20 0.5C25.1717 0.5 30.1316 2.55446 33.7886 6.21142C37.4455 9.86838 39.5 14.8283 39.5 20Z" fill="#3D52A0" stroke="#D9D9D9"/>
<path d="M26.9847 25.2403L26.9848 25.2402C27.1502 25.0198 27.2214 24.7427 27.1825 24.4699C27.1437 24.1971 26.9981 23.9509 26.7777 23.7854C26.5573 23.62 26.2802 23.5488 26.0074 23.5877C25.7347 23.6265 25.4885 23.772 25.3231 23.9923C25.323 23.9924 25.323 23.9924 25.3229 23.9925L24.9231 23.6923L26.9847 25.2403ZM26.9847 25.2403C25.885 26.7058 24.3521 27.7882 22.6031 28.3341C20.854 28.8801 18.9776 28.862 17.2395 28.2824C15.5013 27.7027 13.9896 26.591 12.9183 25.1045C11.8471 23.618 11.2707 21.8322 11.2707 20C11.2707 18.1678 11.8471 16.3819 12.9183 14.8955C13.9896 13.409 15.5013 12.2973 17.2395 11.7176C18.9776 11.138 20.854 11.1199 22.6031 11.6659C24.3521 12.2118 25.885 13.2942 26.9847 14.7597L26.9848 14.7598M26.9847 25.2403L26.9848 14.7598M26.9848 14.7598C27.0667 14.8689 27.1263 14.9931 27.1602 15.1253M26.9848 14.7598L27.1602 15.1253M27.1602 15.1253C27.1942 15.2574 27.2017 15.395 27.1825 15.5301M27.1602 15.1253L27.1825 15.5301M27.1825 15.5301C27.1633 15.6652 27.1176 15.7951 27.0482 15.9126M27.1825 15.5301L27.0482 15.9126M27.0482 15.9126C26.9787 16.03 26.8868 16.1326 26.7777 16.2146M27.0482 15.9126L26.7777 16.2146M26.7777 16.2146C26.6686 16.2965 26.5444 16.3561 26.4122 16.3901M26.7777 16.2146L26.4122 16.3901M26.4122 16.3901C26.2801 16.424 26.1425 16.4315 26.0074 16.4123M26.4122 16.3901L26.0074 16.4123M26.0074 16.4123C25.8723 16.3931 25.7424 16.3474 25.6249 16.278M26.0074 16.4123L25.6249 16.278M25.6249 16.278C25.5075 16.2086 25.405 16.1167 25.3231 16.0077L25.6249 16.278ZM20 37.4231H20.0006C24.6197 37.4178 29.0481 35.5806 32.3144 32.3143C35.5806 29.0481 37.4178 24.6197 37.4231 20.0006V20C37.4231 16.554 36.4012 13.1855 34.4868 10.3203C32.5723 7.45504 29.8512 5.22189 26.6675 3.90317C23.4839 2.58446 19.9807 2.23943 16.6009 2.9117C13.2212 3.58398 10.1167 5.24336 7.68003 7.68002C5.24337 10.1167 3.58398 13.2212 2.91171 16.6009C2.23944 19.9807 2.58447 23.4839 3.90318 26.6675C5.22189 29.8512 7.45505 32.5723 10.3203 34.4868C13.1855 36.4012 16.554 37.4231 20 37.4231ZM9.16639 3.78634C12.3731 1.64371 16.1431 0.500054 19.9997 0.5C25.1698 0.505527 30.1266 2.56179 33.7824 6.2176C37.4383 9.87348 39.4945 14.8303 39.5 20.0005C39.4999 23.8571 38.3563 27.627 36.2137 30.8336C34.071 34.0404 31.0255 36.5397 27.4623 38.0156C23.8992 39.4916 19.9784 39.8777 16.1957 39.1253C12.4131 38.3729 8.93855 36.5157 6.21143 33.7886C3.4843 31.0615 1.62711 27.5869 0.874696 23.8043C0.122284 20.0216 0.508449 16.1008 1.98436 12.5377C3.46027 8.97451 5.95963 5.92903 9.16639 3.78634Z" fill="#3D52A0" stroke="#D9D9D9"/>
</svg>
