<svg width="100" height="100" viewBox="0 0 100 100" fill="none" xmlns="http://www.w3.org/2000/svg">
<path d="M37 41.166L50.575 51.3493C51.416 51.98 52.4644 52.2696 53.5099 52.1598C54.5554 52.0501 55.5208 51.5492 56.2125 50.7576L82.8333 20.3326" stroke="black" stroke-width="8.33333" stroke-linecap="round"/>
<path d="M87 49.4993C87.0001 57.3348 84.5459 64.9736 79.9819 71.3427C75.4179 77.7118 68.9735 82.4913 61.5538 85.0099C54.1341 87.5286 46.1119 87.6597 38.6138 85.3851C31.1157 83.1104 24.5184 78.5442 19.7486 72.3278C14.9788 66.1113 12.2761 58.5569 12.02 50.7255C11.764 42.8942 13.9674 35.1794 18.3209 28.6646C22.6744 22.1498 28.9593 17.1623 36.2928 14.4027C43.6263 11.6431 51.64 11.25 59.2083 13.2785" stroke="black" stroke-width="8.33333" stroke-linecap="round"/>
</svg>
