<svg width="17" height="17" viewBox="0 0 17 17" fill="none" xmlns="http://www.w3.org/2000/svg">
<path d="M4.92488 1.65575C4.63519 0.962064 4.33032 0.948067 4.05483 0.935902C3.82925 0.925437 3.57137 0.926222 3.31373 0.926222C3.05585 0.926222 2.63685 1.03074 2.28269 1.44737C1.92816 1.8644 0.929169 2.87216 0.929169 4.92183C0.929169 6.9715 2.31486 8.9525 2.50803 9.23073C2.70144 9.50844 5.18313 13.8493 9.11352 15.5192C12.38 16.907 13.0448 16.6309 13.7537 16.5614C14.4628 16.492 16.0416 15.5538 16.3637 14.581C16.6861 13.6083 16.6861 12.7745 16.5894 12.6003C16.4928 12.4267 16.2349 12.3224 15.8482 12.1142C15.4615 11.9059 13.5603 10.8979 13.2059 10.7589C12.8514 10.6199 12.5936 10.5506 12.3357 10.9678C12.0778 11.3843 11.3373 12.3224 11.1116 12.6003C10.8862 12.8788 10.6604 12.9134 10.2739 12.7051C9.88693 12.496 8.64159 12.0566 7.16411 10.6375C6.01457 9.53316 5.23849 8.16946 5.01291 7.75231C4.78732 7.33581 4.98875 7.11003 5.18264 6.90243C5.35639 6.71577 5.56947 6.41595 5.763 6.17277C5.9558 5.92946 6.02015 5.75588 6.14909 5.47804C6.27816 5.19993 6.21356 4.95663 6.11704 4.74824C6.02015 4.53986 5.26873 2.47947 4.92488 1.65575Z" fill="white"/>
</svg>
