<svg width="30" height="30" viewBox="0 0 30 30" fill="none" xmlns="http://www.w3.org/2000/svg">
<path fill-rule="evenodd" clip-rule="evenodd" d="M1.758 27.8025C3.5145 30 6.3435 30 12 30H18C23.6565 30 26.4855 30 28.242 27.8025C30 25.6069 30 22.0706 30 15C30 7.92938 30 4.39313 28.242 2.1975C26.4855 -2.23517e-07 23.6565 0 18 0H12C6.3435 0 3.5145 -2.23517e-07 1.758 2.1975C-1.78814e-07 4.39313 0 7.92938 0 15C0 22.0706 -1.78814e-07 25.6069 1.758 27.8025ZM10.5 22.9688C10.2016 22.9688 9.91548 23.1169 9.70451 23.3806C9.49353 23.6444 9.375 24.002 9.375 24.375C9.375 24.748 9.49353 25.1056 9.70451 25.3694C9.91548 25.6331 10.2016 25.7812 10.5 25.7812H19.5C19.7984 25.7812 20.0845 25.6331 20.2955 25.3694C20.5065 25.1056 20.625 24.748 20.625 24.375C20.625 24.002 20.5065 23.6444 20.2955 23.3806C20.0845 23.1169 19.7984 22.9688 19.5 22.9688H10.5Z" fill="#362370"/>
</svg>
