<svg width="59" height="75" viewBox="0 0 59 75" fill="none" xmlns="http://www.w3.org/2000/svg">
<path d="M58.3333 4.16667H46.6963C44.8098 4.16667 43.0006 3.41727 41.6667 2.08333C40.3327 0.749397 38.5235 0 36.6371 0H21.6963C19.8098 0 18.0006 0.749397 16.6667 2.08333C15.3327 3.41727 13.5235 4.16667 11.6371 4.16667H4.16666C1.86548 4.16667 0 6.03215 0 8.33333C0 10.6345 1.86548 12.5 4.16667 12.5H58.3333M4.16667 66.6667C4.16667 68.8768 5.04464 70.9964 6.60744 72.5592C8.17025 74.122 10.2899 75 12.5 75H45.8333C48.0435 75 50.1631 74.122 51.7259 72.5592C53.2887 70.9964 54.1667 68.8768 54.1667 66.6667V36.6667C54.1667 25.621 45.2124 16.6667 34.1667 16.6667H24.1667C13.121 16.6667 4.16667 25.621 4.16667 36.6667V66.6667Z" fill="black"/>
</svg>
