<svg width="75" height="77" viewBox="0 0 75 77" fill="none" xmlns="http://www.w3.org/2000/svg">
<path d="M14.5833 20.375H52.0833V16.2083H14.5833V20.375ZM58.3333 76.1541C53.6917 76.1541 49.7542 74.5361 46.5208 71.3C43.2847 68.0638 41.6667 64.125 41.6667 59.4833C41.6667 54.8416 43.2847 50.9027 46.5208 47.6666C49.7569 44.4305 53.6944 42.8138 58.3333 42.8166C62.9722 42.8194 66.9111 44.4361 70.15 47.6666C73.3889 50.8972 75.0056 54.8361 75 59.4833C75 64.1222 73.3833 68.0597 70.15 71.2958C66.9111 74.5319 62.9722 76.15 58.3333 76.15M56.7333 71.5H59.9375V61.0833H70.3542V57.875H59.9375V47.4583H56.7292V57.875H46.3125V61.0833H56.7292L56.7333 71.5ZM0 67.3333V0.666626H66.6667V32.1916C65.2944 31.7527 63.9181 31.4097 62.5375 31.1625C61.1542 30.918 59.7528 30.7958 58.3333 30.7958C56.9278 30.7958 55.5611 30.9069 54.2333 31.1291C52.9083 31.3513 51.6042 31.6652 50.3208 32.0708V31.9166H14.5833V36.0833H42C39.9139 37.5305 38.0736 39.2291 36.4792 41.1791C34.8847 43.1291 33.5722 45.2763 32.5417 47.6208H14.5833V51.7875H31.0833C30.7833 52.9625 30.5486 54.1472 30.3792 55.3416C30.2125 56.5361 30.1292 57.7555 30.1292 59C30.1292 60.2777 30.2042 61.6791 30.3542 63.2041C30.5042 64.7291 30.8319 66.1055 31.3375 67.3333H0Z" fill="black"/>
</svg>
