<svg width="24" height="24" viewBox="0 0 24 24" fill="none" xmlns="http://www.w3.org/2000/svg">
<path d="M0.0985354 11.6722C0.0978908 13.7294 0.638178 15.7377 1.66534 17.5079L0 23.5564L6.22256 21.9334C7.93707 22.8633 9.86745 23.3536 11.8317 23.3543H11.8368C18.3059 23.3543 23.5721 18.1173 23.5748 11.6815C23.5759 8.56249 22.3559 5.62951 20.1399 3.42316C17.9236 1.21709 14.9767 0.0012825 11.8368 0C5.36659 0 0.101114 5.23624 0.0985354 11.6722ZM3.8043 17.203L3.57195 16.8361C2.59526 15.2913 2.07974 13.506 2.08048 11.6729C2.0825 6.32353 6.45895 1.97138 11.8405 1.97138C14.4466 1.97248 16.8958 2.98308 18.7379 4.81669C20.58 6.65047 21.5936 9.08813 21.593 11.6808C21.5906 17.0302 17.214 21.3829 11.8368 21.3829H11.8329C10.082 21.3819 8.36483 20.9142 6.86727 20.0303L6.51089 19.82L2.8183 20.7831L3.8043 17.203Z" fill="url(#paint0_linear_12_39)"/>
<defs>
<linearGradient id="paint0_linear_12_39" x1="1178.74" y1="2355.64" x2="1178.74" y2="0" gradientUnits="userSpaceOnUse">
<stop stop-color="#F9F9F9"/>
<stop offset="1" stop-color="white"/>
</linearGradient>
</defs>
</svg>
