<svg width="20" height="25" viewBox="0 0 20 25" fill="none" xmlns="http://www.w3.org/2000/svg">
<path d="M20 12.2867C19.9995 9.02826 18.9457 5.90347 17.0705 3.59941C15.1952 1.29535 12.652 0.000651491 10 0V2.45734C11.5821 2.45778 13.1286 3.03436 14.4441 4.11424C15.7596 5.19412 16.7851 6.72884 17.391 8.5245C17.7931 9.71726 18.0001 10.9957 18 12.2867H20ZM0 9.82935V3.68601C0 3.36014 0.105357 3.04763 0.292893 2.81721C0.48043 2.58679 0.734784 2.45734 1 2.45734H6C6.26522 2.45734 6.51957 2.58679 6.70711 2.81721C6.89464 3.04763 7 3.36014 7 3.68601V8.60068C7 8.92655 6.89464 9.23906 6.70711 9.46948C6.51957 9.6999 6.26522 9.82935 6 9.82935H4C4 12.4363 4.84285 14.9364 6.34315 16.7798C7.84344 18.6231 9.87827 19.6587 12 19.6587V17.2014C12 16.8755 12.1054 16.563 12.2929 16.3326C12.4804 16.1021 12.7348 15.9727 13 15.9727H17C17.2652 15.9727 17.5196 16.1021 17.7071 16.3326C17.8946 16.563 18 16.8755 18 17.2014V23.3447C18 23.6706 17.8946 23.9831 17.7071 24.2135C17.5196 24.4439 17.2652 24.5734 17 24.5734H12C5.373 24.5734 0 17.9717 0 9.82935Z" fill="#1FAF38"/>
<path d="M12.543 21.1824C12.8449 22.0766 13.0002 23.0353 13 24.0034H11.2C11.2001 23.3257 11.0916 22.6546 10.8806 22.0284C10.6695 21.4023 10.3602 20.8333 9.97014 20.3541C9.58011 19.8749 9.11705 19.4948 8.60743 19.2355C8.0978 18.9762 7.55159 18.8428 7 18.843V16.6314C8.18665 16.6315 9.34664 17.0639 10.3333 17.8739C11.3199 18.684 12.0889 19.8354 12.543 21.1824Z" fill="#1FAF38"/>
</svg>
