<svg width="80" height="100" viewBox="0 0 80 100" fill="none" xmlns="http://www.w3.org/2000/svg">
<path d="M40 10C57.644 10 72 27.945 72 50C72 72.055 57.644 90 40 90C22.356 90 8 72.055 8 50C8 27.945 22.356 10 40 10ZM40 0C17.908 0 0 22.385 0 50C0 77.615 17.908 100 40 100C62.092 100 80 77.615 80 50C80 22.385 62.092 0 40 0ZM60 50C60 47.2386 57.7614 45 55 45H52C47.5817 45 44 41.4183 44 37V29C44 26.7909 42.2091 25 40 25C37.7909 25 36 26.7909 36 29V37C36 41.4183 32.4183 45 28 45H25C22.2386 45 20 47.2386 20 50C20 52.7614 22.2386 55 25 55H28C32.4183 55 36 58.5817 36 63V71C36 73.2091 37.7909 75 40 75C42.2091 75 44 73.2091 44 71V63C44 58.5817 47.5817 55 52 55H55C57.7614 55 60 52.7614 60 50Z" fill="black"/>
</svg>
